<?xml version="1.0" encoding="utf-8"?>
<svg width="105px" height="105px" viewBox="0 0 105 105" version="1.1" xmlns:xlink="http://www.w3.org/1999/xlink" xmlns="http://www.w3.org/2000/svg">
  <desc>Created with Lunacy</desc>
  <defs>
    <path d="M0 0L105 0L105 105L0 105L0 0Z" id="path_1" />
    <clipPath id="mask_1">
      <use xlink:href="#path_1" />
    </clipPath>
  </defs>
  <g id="Settings-icon-Copy">
    <path d="M0 0L105 0L105 105L0 105L0 0Z" id="Background" fill="none" stroke="none" />
    <g clip-path="url(#mask_1)">
      <path d="M43.75 0C19.5875 0 0 19.5875 0 43.75C4.17233e-06 67.9125 19.5875 87.5 43.75 87.5C67.9125 87.5 87.5 67.9125 87.5 43.75C87.5 19.5875 67.9125 0 43.75 0L43.75 0Z" transform="translate(8.75 4.375)" id="Shape" fill="#FFF59D" stroke="none" />
      <path d="M56.83 28.4119C56.83 11.5681 42.3925 -1.77565 25.1112 0.193106C11.9862 1.72436 1.48622 12.2244 0.173721 25.3494C-0.920029 35.4119 3.23622 44.3806 10.2362 50.0681C13.2987 52.6931 15.2675 56.4119 15.2675 60.5681L15.2675 61.2244L41.5175 61.2244L41.5175 61.0056C41.5175 57.0681 43.2675 53.1306 46.33 50.5056C52.6737 45.2556 56.83 37.3806 56.83 28.4119L56.83 28.4119Z" transform="translate(24.107544 19.713135)" id="Shape" fill="#FBC02D" stroke="none" />
      <path d="M29.5313 4.70313L22.9687 0.328128C22.3125 -0.109373 21.2188 -0.109373 20.5625 0.328128L15.0937 3.82813L9.84375 0.328124C9.1875 -0.109378 8.09375 -0.109378 7.4375 0.328124L0.874999 4.70312C0.437497 5.14063 0 5.57812 0 6.23438C0 6.89063 0 7.54688 0.437502 7.98437L8.75 18.2656L8.75 41.4531L13.125 41.4531L13.125 17.3906C13.125 16.9531 12.9062 16.5156 12.6875 16.0781L5.46875 7.10937L8.75 4.92187L14 8.42188C14.6562 8.85938 15.75 8.85938 16.4063 8.42188L21.6562 4.92187L24.9375 7.10937L17.7188 16.0781C17.5 16.5156 17.2812 16.9531 17.2812 17.3906L17.2812 41.4531L21.6562 41.4531L21.6562 18.2656L29.9687 7.98438C30.4062 7.54688 30.625 6.89063 30.4062 6.23438C30.1875 5.57813 29.9687 4.92187 29.5313 4.70313L29.5313 4.70313Z" transform="translate(37.40625 39.484375)" id="Shape" fill="#FFF59D" stroke="none" />
      <path d="M6.5625 0C2.93813 0 0 2.93813 0 6.5625C0 10.1869 2.93813 13.125 6.5625 13.125C10.1869 13.125 13.125 10.1869 13.125 6.5625C13.125 2.93813 10.1869 0 6.5625 0L6.5625 0Z" transform="translate(45.9375 89.6875)" id="Shape" fill="#5C6BC0" stroke="none" />
      <path d="M17.5 19.6875L8.75 19.6875C3.9375 19.6875 0 15.75 0 10.9375L0 0L26.25 0L26.25 10.9375C26.25 15.75 22.3125 19.6875 17.5 19.6875L17.5 19.6875Z" transform="translate(39.375 78.75)" id="Shape" fill="#9FA8DA" stroke="none" />
      <path d="M0 8.09375L0 3.71875L26.25 0L26.25 4.375L0 8.09375ZM0.874999 12.25L26.25 8.75C26.25 10.5 25.8125 12.0312 24.9375 13.3437L4.375 16.1875C2.84375 15.3125 1.53125 13.7812 0.874999 12.25Z" transform="translate(39.375 80.9375)" id="Shape" fill="#5C6BC0" fill-rule="evenodd" stroke="none" />
    </g>
  </g>
</svg>