<?xml version="1.0" encoding="utf-8"?>
<svg width="105px" height="105px" viewBox="0 0 105 105" version="1.1" xmlns:xlink="http://www.w3.org/1999/xlink" xmlns="http://www.w3.org/2000/svg">
  <desc>Created with Lunacy</desc>
  <defs>
    <path d="M0 0L105 0L105 105L0 105L0 0Z" id="path_1" />
    <clipPath id="mask_1">
      <use xlink:href="#path_1" />
    </clipPath>
  </defs>
  <g id="Settings-icon">
    <path d="M0 0L105 0L105 105L0 105L0 0Z" id="Background" fill="none" stroke="none" />
    <g clip-path="url(#mask_1)">
      <path d="M79.2847 45.7188C79.2847 47.4688 79.066 49 78.8472 50.5313L88.0347 57.5313C88.9097 58.1875 89.3472 59.5 88.691 60.5938L79.2847 76.7813C78.8472 77.6563 77.5347 78.0938 76.441 77.6563L65.5035 72.625C63.0972 74.5938 60.2535 76.125 57.191 77.4375L56.0972 89.4688C56.0972 90.5625 55.0035 91.4375 53.9097 91.4375L35.0972 91.4375C34.0035 91.4375 33.1285 90.5625 32.9097 89.4688L31.816 77.4375C28.7535 76.125 26.1285 74.5938 23.5035 72.625L12.566 77.6563C11.4722 78.3125 10.3785 77.875 9.72222 76.7813L0.315972 60.5938C-0.340278 59.5 0.097222 58.1875 0.972222 57.5313L11.2535 50.5313C11.0347 49 10.816 47.4688 10.816 45.7188C10.816 43.9688 11.0347 42.4375 11.2535 40.9063L1.40972 33.9063C0.534724 33.25 0.0972235 31.9375 0.753473 30.8438L10.1597 14.6562C10.5972 13.7813 11.9097 13.3438 13.0035 13.7813L23.941 18.8125C26.3472 16.8438 29.191 15.3125 32.2535 14L33.3472 1.96875C33.3472 0.875 34.441 0 35.5347 0L54.3472 0C55.441 0 56.316 0.875 56.5347 1.96875L57.6285 14C60.691 15.3125 63.316 16.8438 65.941 18.8125L76.8785 13.7813C77.9722 13.125 79.066 13.5625 79.7222 14.6562L89.3472 30.8437C90.0035 31.9375 89.566 33.25 88.691 33.9062L78.8472 40.9063C79.066 42.4375 79.2847 43.9688 79.2847 45.7188ZM22.8472 45.7188C22.8472 57.75 32.691 67.5938 44.7222 67.5938C56.7535 67.5938 66.5972 57.75 66.5972 45.7188C66.5972 33.6875 56.7535 23.8438 44.7222 23.8438C32.691 23.8438 22.8472 33.6875 22.8472 45.7188Z" transform="translate(7.77771 8.96875)" id="Shape" fill="#607D8B" fill-rule="evenodd" stroke="none" />
      <path d="M0 26.25C0 11.8125 11.8125 0 26.25 0C40.6875 0 52.5 11.8125 52.5 26.25C52.5 40.6875 40.6875 52.5 26.25 52.5C11.8125 52.5 0 40.6875 0 26.25ZM15.3125 26.25C15.3125 32.375 20.125 37.1875 26.25 37.1875C32.375 37.1875 37.1875 32.375 37.1875 26.25C37.1875 20.125 32.375 15.3125 26.25 15.3125C20.125 15.3125 15.3125 20.125 15.3125 26.25Z" transform="translate(26.25 28.4375)" id="Shape" fill="#455A64" fill-rule="evenodd" stroke="none" />
    </g>
  </g>
</svg>